<svg xmlns="http://www.w3.org/2000/svg" viewBox="0 0 356.1 135.51"><defs><style>.e0812e78-5504-4859-909b-debf84e91ee3{fill:#fff;}</style></defs><g id="a274f0fe-4c0d-4f97-a995-ba25af95c0ce" data-name="Layer 2"><g id="bcf14ba4-dfbc-4f90-839a-d5db89ae2f43" data-name="Layer 1"><path class="e0812e78-5504-4859-909b-debf84e91ee3" d="M145.34,33.92,123.83,13.65,136.93,1.2c11.83,15.21,26.34,26.74,41,38.1a6.46,6.46,0,0,1,2.8,5.9c-.32,18.91-.45,37.83-.85,56.74a6,6,0,0,1-2.5,4.33c-5.37,3-10.94,5.6-16.52,8.18a7.57,7.57,0,0,1-4.5.84c-7.52-1.85-15-4-22.47-6-3-.78-3.76-2.27-3.25-5.42a77,77,0,0,0,.58-12.26c0-15.25.08-30.51-.14-45.76-.05-3.29,1-5.07,3.92-6.38C138.39,38,141.58,36,145.34,33.92ZM164,102.75c0-2,0-3.61,0-5.21,0-15.41,0-30.82-.06-46.23a4.39,4.39,0,0,0-1.37-3c-4.48-3.67-9.1-7.17-14.35-11.26-.36,4-.86,7-.88,10q-.13,20.48,0,40.94c0,12.65.79,13.42,13.53,14.76C161.72,102.83,162.6,102.75,164,102.75Z"/><path class="e0812e78-5504-4859-909b-debf84e91ee3" d="M89.87,103.89l-10.8,11.6c-4.08-2.51-8-4.79-11.71-7.29a3.75,3.75,0,0,1-1.24-2.8c.21-11,.59-21.94.82-32.92.12-6-.22-12,.1-18,.23-4.14-.73-7.15-4.81-8.72a17.9,17.9,0,0,1-2.79-1.94c4.09-3.57,7.81-7,11.81-10.13.91-.7,2.86-.31,4.25,0a6.16,6.16,0,0,1,2.56,1.65c3.92,3.55,7.67,3.95,12,.35,3.33-2.79,7.09-3.24,11.38-1.1,3.75,1.87,8,2.67,12.06,4,1.94.64,2.89,1.33,2.36,4.08a82.87,82.87,0,0,0-1.08,14.88c-.14,12,.09,24.07-.17,36.1-.1,4.33.79,7.4,5.29,8.72,1.06.31,1.94,1.22,3.65,2.34-3.77,3.5-7.17,6.84-10.8,9.9a3.92,3.92,0,0,1-3.6.27,65.18,65.18,0,0,1-9.36-6.51c-.94-.81-1.09-2.89-1.1-4.39-.07-17.18-.13-34.35,0-51.52,0-3.23-.8-4.8-4.13-5.32s-6.77-1.68-10.95-2.76c0,4.07,0,7.54,0,11-.15,12-.28,24.07-.51,36.1C83,96.61,82.2,102,89.87,103.89Z"/><path class="e0812e78-5504-4859-909b-debf84e91ee3" d="M334.5,108.35c-.26.09-.45.09-.53.18-6,7.54-13.09,7-20.89,3.16a47.22,47.22,0,0,0-9.51-3.32c-2.79-.7-3.16-2.25-3.08-4.78.42-13.6.71-27.21,1-40.82.1-5.28-.16-10.57.12-15.83A5.41,5.41,0,0,1,304,43.07c5.69-3,11.52-5.71,17.41-8.27a9.39,9.39,0,0,1,5.45-.62c6.84,1.55,13.59,3.46,20.38,5.2,2.91.75,4.09,2.07,3,5.38a31.33,31.33,0,0,0-1.12,9.08c-.11,13.63.1,27.27-.14,40.9-.07,4,.8,6.84,4.57,8.47,3.44,1.5,3,3.44.59,5.56-.11.1-.2.22-.3.33-6.54,7-6.54,7-14.6,2.08C337.7,110.2,336.06,109.26,334.5,108.35Zm-17.61-64c0,2.41,0,4,0,5.6,0,13.91.1,27.82-.07,41.73-.09,7.5.68,8.74,8,10.09,1.29.24,2.65.15,3.93.41,3.83.8,5.25-.63,5.23-4.57-.09-14.5,0-29,.15-43.49,0-3.09-1.19-5-4.11-5.9C325.87,47,321.68,45.8,316.89,44.39Z"/><path class="e0812e78-5504-4859-909b-debf84e91ee3" d="M250.82,105.43a11.69,11.69,0,0,1-.81,1.62c-6.93,8.93-8,9.13-17.44,3.47-1.25-.75-2.52-1.46-3.75-2.17-.33.16-.67.22-.84.42-5.65,6.87-12.19,7.11-19.7,3.15a46.87,46.87,0,0,0-10.35-3.55c-2.76-.7-3.23-2.18-3.14-4.73q.65-19.29,1-38.59c.12-5.87.08-11.74-.08-17.6a4.26,4.26,0,0,1,2.94-4.66c5.75-2.52,11.32-5.45,17.07-8a9.38,9.38,0,0,1,5.44-.65c6.84,1.54,13.59,3.46,20.39,5.18,2.91.74,4.12,2,3.12,5.34a32.5,32.5,0,0,0-1.14,9.08c-.11,13.34.13,26.69-.14,40-.1,4.58.73,8,5.27,9.88A9.87,9.87,0,0,1,250.82,105.43ZM211.38,45v4.67c0,13.94.11,27.88-.06,41.82-.09,8,.89,9.41,8.91,10.49.87.12,1.78.06,2.63.25,4,.93,5.54-.58,5.47-4.76-.19-11-.06-22-.06-33,0-16,0-16-15.57-19.55A6.49,6.49,0,0,0,211.38,45Z"/><path class="e0812e78-5504-4859-909b-debf84e91ee3" d="M257.8,135.51V47.64l-4.37-.53c-.14-.3-.42-.67-.34-.79,6.78-9.87,5.47-20.85,4.53-31.82A3.78,3.78,0,0,1,259,11.4c7.17-3.47,14.32-7,21.77-9.84,2.45-.92,6-.24,8.6.8,3.72,1.48,7.05,4,11.57,6.62-4.11,3.74-7.28,7.18-11.05,9.7-1.16.77-4.25-.58-6-1.68-2.65-1.67-4.91-4-7.34-6l-1.61.49c0,4.58,0,9.15,0,13.73.08,10.91-1.89,10.9,11.07,10.61,1.73,0,3.46,0,5.19,0a6.64,6.64,0,0,1,.46,1.41c.47,10,.46,10-9.51,10h-7.63c0,10.11,0,19.75,0,29.39-.05,15.26-.21,30.53-.14,45.79,0,2.84-.77,4.62-3.35,5.92C266.6,130.52,262.32,133,257.8,135.51Z"/><path class="e0812e78-5504-4859-909b-debf84e91ee3" d="M44.45,7c-.41,4.13-1.07,7.57-1.05,11q.3,39,.89,77.92c.05,3.14-.77,5.15-3.58,6.76-5.21,3-10.28,6.24-15.28,9.58-7.44,5-15,2.88-24.22,1.11,6.09-5.13,11.13-9.48,16.34-13.62.57-.46,2.18.07,3.15.5a59.44,59.44,0,0,1,5.22,3c.2-2.19.48-3.71.46-5.22-.31-25.54-.71-51.07-.95-76.61,0-2.95-1.31-4.38-3.93-4.82C14.77,15.42,8,14.41,0,13.14,4.65,8.84,8.94,4.73,13.42.83A4.57,4.57,0,0,1,17,.09C25.34,2,33.69,4,42,6.06A17,17,0,0,1,44.45,7Z"/></g></g></svg>